<mxfile host="app.diagrams.net" modified="2023-11-02T16:33:11.397Z" agent="Mozilla/5.0 (Windows NT 10.0; Win64; x64) AppleWebKit/537.36 (KHTML, like Gecko) Chrome/116.0.5845.931 YaBrowser/23.9.3.931 Yowser/2.5 Safari/537.36" etag="-9KRA3DytcrQuAa20IFL" version="22.0.8" type="device">
  <diagram name="Страница — 1" id="Y8ZyyaoFjQq6os02VSiY">
    <mxGraphModel dx="1386" dy="767" grid="1" gridSize="10" guides="1" tooltips="1" connect="1" arrows="1" fold="1" page="1" pageScale="1" pageWidth="827" pageHeight="1169" math="0" shadow="0">
      <root>
        <mxCell id="0" />
        <mxCell id="1" parent="0" />
        <mxCell id="1M9EGPzEf9IJFgaJxFxX-1" value="" style="whiteSpace=wrap;html=1;aspect=fixed;fontStyle=2;align=left;" parent="1" vertex="1">
          <mxGeometry x="110" y="100" width="650" height="650" as="geometry" />
        </mxCell>
        <mxCell id="1M9EGPzEf9IJFgaJxFxX-3" value="Host machine" style="text;html=1;align=center;verticalAlign=middle;resizable=0;points=[];autosize=1;strokeColor=none;fillColor=none;" parent="1" vertex="1">
          <mxGeometry x="645" y="120" width="100" height="30" as="geometry" />
        </mxCell>
        <mxCell id="1M9EGPzEf9IJFgaJxFxX-4" value="Браузер" style="rounded=0;whiteSpace=wrap;html=1;" parent="1" vertex="1">
          <mxGeometry x="130" y="300" width="120" height="60" as="geometry" />
        </mxCell>
        <mxCell id="1M9EGPzEf9IJFgaJxFxX-6" value="" style="rounded=0;whiteSpace=wrap;html=1;" parent="1" vertex="1">
          <mxGeometry x="400" y="240" width="304" height="370" as="geometry" />
        </mxCell>
        <mxCell id="1M9EGPzEf9IJFgaJxFxX-8" value="lab2 service" style="rounded=1;whiteSpace=wrap;html=1;" parent="1" vertex="1">
          <mxGeometry x="492" y="300" width="120" height="60" as="geometry" />
        </mxCell>
        <mxCell id="1M9EGPzEf9IJFgaJxFxX-10" value="" style="endArrow=classic;html=1;rounded=0;exitX=1;exitY=0.5;exitDx=0;exitDy=0;entryX=0.982;entryY=0.45;entryDx=0;entryDy=0;entryPerimeter=0;" parent="1" source="1M9EGPzEf9IJFgaJxFxX-4" target="1M9EGPzEf9IJFgaJxFxX-14" edge="1">
          <mxGeometry width="50" height="50" relative="1" as="geometry">
            <mxPoint x="390" y="420" as="sourcePoint" />
            <mxPoint x="340" y="350" as="targetPoint" />
          </mxGeometry>
        </mxCell>
        <mxCell id="1M9EGPzEf9IJFgaJxFxX-11" value="localhost:8200" style="text;html=1;align=center;verticalAlign=middle;resizable=0;points=[];autosize=1;strokeColor=none;fillColor=none;" parent="1" vertex="1">
          <mxGeometry x="150" y="260" width="100" height="30" as="geometry" />
        </mxCell>
        <mxCell id="1M9EGPzEf9IJFgaJxFxX-14" value="Проброс порта&lt;br&gt;&lt;br&gt;8200:3000" style="text;html=1;align=center;verticalAlign=middle;resizable=0;points=[];autosize=1;strokeColor=none;fillColor=none;" parent="1" vertex="1">
          <mxGeometry x="292" y="302" width="110" height="60" as="geometry" />
        </mxCell>
        <mxCell id="1M9EGPzEf9IJFgaJxFxX-15" value="" style="endArrow=classic;html=1;rounded=0;exitX=1.018;exitY=0.433;exitDx=0;exitDy=0;entryX=0;entryY=0.5;entryDx=0;entryDy=0;exitPerimeter=0;" parent="1" source="1M9EGPzEf9IJFgaJxFxX-14" target="1M9EGPzEf9IJFgaJxFxX-8" edge="1">
          <mxGeometry width="50" height="50" relative="1" as="geometry">
            <mxPoint x="320" y="560" as="sourcePoint" />
            <mxPoint x="370" y="510" as="targetPoint" />
          </mxGeometry>
        </mxCell>
        <mxCell id="UN-FCqZMBIF3Mas1bnpK-2" value="" style="rounded=0;whiteSpace=wrap;html=1;" vertex="1" parent="1">
          <mxGeometry x="414" y="440" width="276" height="140" as="geometry" />
        </mxCell>
        <mxCell id="jYK01BvY8ta-V8yyBq_6-1" value="Кластер" style="text;html=1;align=center;verticalAlign=middle;resizable=0;points=[];autosize=1;strokeColor=none;fillColor=none;" parent="1" vertex="1">
          <mxGeometry x="610" y="250" width="70" height="30" as="geometry" />
        </mxCell>
        <mxCell id="UN-FCqZMBIF3Mas1bnpK-1" value="React app" style="rounded=1;whiteSpace=wrap;html=1;" vertex="1" parent="1">
          <mxGeometry x="430" y="480" width="120" height="60" as="geometry" />
        </mxCell>
        <mxCell id="1M9EGPzEf9IJFgaJxFxX-7" value="React app" style="rounded=1;whiteSpace=wrap;html=1;" parent="1" vertex="1">
          <mxGeometry x="560" y="480" width="120" height="60" as="geometry" />
        </mxCell>
        <mxCell id="UN-FCqZMBIF3Mas1bnpK-3" value="" style="endArrow=none;dashed=1;html=1;dashPattern=1 3;strokeWidth=2;rounded=0;entryX=0.5;entryY=1;entryDx=0;entryDy=0;exitX=0.5;exitY=0;exitDx=0;exitDy=0;" edge="1" parent="1" source="UN-FCqZMBIF3Mas1bnpK-1" target="1M9EGPzEf9IJFgaJxFxX-8">
          <mxGeometry width="50" height="50" relative="1" as="geometry">
            <mxPoint x="390" y="420" as="sourcePoint" />
            <mxPoint x="440" y="370" as="targetPoint" />
            <Array as="points">
              <mxPoint x="550" y="410" />
            </Array>
          </mxGeometry>
        </mxCell>
        <mxCell id="UN-FCqZMBIF3Mas1bnpK-4" value="" style="endArrow=none;dashed=1;html=1;dashPattern=1 3;strokeWidth=2;rounded=0;exitX=0.5;exitY=0;exitDx=0;exitDy=0;" edge="1" parent="1" source="1M9EGPzEf9IJFgaJxFxX-7">
          <mxGeometry width="50" height="50" relative="1" as="geometry">
            <mxPoint x="390" y="420" as="sourcePoint" />
            <mxPoint x="550" y="420" as="targetPoint" />
          </mxGeometry>
        </mxCell>
        <mxCell id="UN-FCqZMBIF3Mas1bnpK-6" value=":3000" style="text;html=1;align=center;verticalAlign=middle;resizable=0;points=[];autosize=1;strokeColor=none;fillColor=none;" vertex="1" parent="1">
          <mxGeometry x="562" y="370" width="50" height="30" as="geometry" />
        </mxCell>
      </root>
    </mxGraphModel>
  </diagram>
</mxfile>
